<svg xmlns="http://www.w3.org/2000/svg" xmlns:xlink="http://www.w3.org/1999/xlink" width="170" height="170">
  <defs>
    <linearGradient id="foreground" x1="35" y1="25" x2="140" y2="150" gradientUnits="userSpaceOnUse">
      <stop offset="0" style="stop-color:#7A7A7A;"/>
      <stop style="stop-color:#000000;" offset="1"/>
    </linearGradient>
    <linearGradient id="background" x1="80" y1="5" x2="65" y2="90" gradientUnits="userSpaceOnUse">
      <stop style="stop-color:#f2f2f2;" offset="0"/>
      <stop style="stop-color:#f2f2f2;stop-opacity:0;" offset="1"/>
    </linearGradient>
  </defs>
  <path style="fill:url(#foreground);"
    d="M 167.66666,85.166664 A 81.166664,80.5 0 1 1 5.3333359,85.166664 A 81.166664,80.5 0 1 1 167.66666,85.166664 z"
    transform="translate(-0.9732825,0.6488552)"/>
  <path style="fill:url(#background);"
    d="M 85.5,5.15625 C 47.059612,5.15625 14.915627,31.694848 6.46875,67.28125 C 5.3097325,72.146874 7.9851751,77.107871 12.6875,78.8125 C 23.807797,82.833177 36.293483,86.942841 48.03125,89.34375 C 62.260147,92.254205 74.12959,87.760437 86.59375,82.5625 C 99.093334,77.34979 112.20885,71.520349 129.1875,71.84375 C 137.32476,71.998746 144.73243,72.910887 151.96875,74.0625 C 155.34191,74.594928 158.74994,73.34043 160.97287,70.748078 C 163.19579,68.155726 163.91574,64.596217 162.875,61.34375 C 152.42734,28.790973 121.7634,5.15625 85.5,5.15625 z"/>
</svg>